<svg xmlns="http://www.w3.org/2000/svg" viewBox="0 0 1200 630" width="1200" height="630">
  <defs>
    <linearGradient id="bg" x1="0" y1="0" x2="1" y2="1">
      <stop offset="0%" stop-color="#0a0c10"/>
      <stop offset="100%" stop-color="#11161d"/>
    </linearGradient>
    <radialGradient id="glow" cx="50%" cy="0%" r="60%">
      <stop offset="0%" stop-color="#7c8cff" stop-opacity="0.18"/>
      <stop offset="100%" stop-color="#7c8cff" stop-opacity="0"/>
    </radialGradient>
  </defs>
  <rect width="1200" height="630" fill="url(#bg)"/>
  <rect width="1200" height="630" fill="url(#glow)"/>

  <g transform="translate(80, 110)">
    <g transform="translate(0,0)" stroke="#7c8cff" stroke-width="3" stroke-linecap="round" stroke-linejoin="round" fill="none">
      <rect x="0" y="0" width="56" height="56" rx="12" fill="#11161d" stroke="#3a4250" stroke-width="2"/>
      <g transform="translate(11,11)">
        <path d="M0 6l17 9 17-9"/>
        <path d="M0 17l17 9 17-9"/>
        <path d="M0 28l17 9 17-9"/>
      </g>
    </g>
    <text x="80" y="38" font-family="-apple-system, Segoe UI, Inter, sans-serif" font-size="30" font-weight="600" fill="#e6edf3">DepOversight</text>
  </g>

  <text x="80" y="280" font-family="-apple-system, Segoe UI, Inter, sans-serif" font-size="64" font-weight="600" fill="#e6edf3">
    <tspan x="80" dy="0">Know when your dependencies</tspan>
    <tspan x="80" dy="76">become risky — before your</tspan>
    <tspan x="80" dy="76">scanner tells you.</tspan>
  </text>

  <text x="80" y="540" font-family="-apple-system, Segoe UI, Inter, sans-serif" font-size="22" fill="#9aa4b2">
    Dependency intelligence before disclosure.
  </text>

  <g transform="translate(960, 540)" font-family="ui-monospace, SFMono-Regular, monospace" font-size="18" fill="#7c8cff">
    <rect x="-160" y="-26" width="160" height="36" rx="6" fill="#7c8cff" fill-opacity="0.08" stroke="#7c8cff" stroke-opacity="0.3"/>
    <text x="-80" y="0" text-anchor="middle">depoversight.com</text>
  </g>
</svg>
